<svg width="187" height="88" viewBox="0 0 187 88" fill="none" xmlns="http://www.w3.org/2000/svg">
<path d="M184.185 3.43457L178.46 73.1942C178.019 80.1946 171.765 85.9173 164.554 85.9173H47.2265C18.2151 85.9173 16.2412 75.0579 17.6996 54.5508L22.4071 3.43457H184.185Z" fill="white"/>
<path d="M67.7049 3.43457L61.5662 85.9173H32.1953C3.18384 85.9173 1.20995 75.0579 2.66833 54.5508L7.37581 3.43457H67.7049Z" fill="#510C76"/>
<path d="M74.5642 36.8177L73.5128 51.905C73.0923 57.8912 77.7319 62.7908 83.8164 62.7908H88.5374C94.6219 62.7908 99.9399 57.8912 100.36 51.905L102.172 25.9385H86.3872C80.3027 25.9319 74.978 30.8315 74.5642 36.8177ZM90.7691 51.905C90.7148 52.6755 89.9755 53.3538 89.1954 53.3538H84.4743C83.6875 53.3538 83.0499 52.6755 83.0974 51.905L84.1487 36.8177C84.203 36.0472 84.9424 35.3689 85.7224 35.3689H91.9222L90.7691 51.905Z" fill="#510C76"/>
<path d="M162.06 25.9304H146.276L144.465 51.897C144.397 52.9111 144.478 53.899 144.682 54.8341C144.465 54.8473 144.247 54.8604 144.024 54.8604C139.052 54.8604 136.644 51.4887 137.091 45.1469L137.858 34.1491H137.804L138.075 30.2834C138.244 27.8863 136.386 25.9304 133.951 25.9304H128.653C128.653 25.9304 128.517 27.8863 128.348 30.2834L127.622 40.6819C127.608 40.886 127.595 41.0836 127.581 41.2812L127.514 42.2888C127.486 42.7102 127.459 43.0988 127.432 43.4412L127.398 43.9483C127.378 44.2315 127.364 44.462 127.351 44.6398L127.337 44.7912C127.337 44.8176 127.33 44.8439 127.33 44.8703L127.324 44.969C127.324 45.0086 127.317 45.0349 127.317 45.0349L127.134 47.6954C126.971 50.0267 127.113 52.1209 127.52 53.9846C126.415 54.5641 125.146 54.8538 123.715 54.8538C119.428 54.8538 113.879 53.5038 113.879 46.2532L114.992 30.2768C115.161 27.8797 113.303 25.9238 110.868 25.9238H105.57C105.57 25.9238 105.434 27.8797 105.265 30.2768L102.728 67.7943C102.558 70.1914 102.158 75.9867 102.158 75.9867H107.456C109.891 75.9867 112.021 74.0308 112.184 71.6337L112.74 62.4337C114.191 63.2306 118.051 63.6586 120.289 63.6586C123.83 63.6586 127.303 62.2494 129.976 59.3913C132.214 62.1572 135.714 63.6586 140.347 63.6586C143.372 63.6586 146.35 62.7828 148.894 61.0244C149.613 61.8147 150.997 62.6247 152.204 62.9145H152.211C153.018 63.1055 153.866 63.224 154.748 63.224H159.469C165.553 63.224 170.871 58.3244 171.292 52.3382L172.343 36.7965C172.784 30.83 168.151 25.9304 162.06 25.9304ZM161.728 52.3579C161.673 53.1284 160.934 53.8068 160.154 53.8068H155.433C154.646 53.8068 154.008 53.1284 154.056 52.3579L155.209 35.3674H161.409C162.196 35.3674 162.833 36.0457 162.786 36.8162L161.728 52.3579Z" fill="#510C76"/>
<path d="M80.0716 17.0395L79.9292 19.1139C79.7799 21.2805 81.4554 23.0586 83.6599 23.0586H85.3692C87.5738 23.0586 89.5002 21.2871 89.6494 19.1139L90.07 13.0947H84.3518C82.154 13.0947 80.2209 14.8662 80.0716 17.0395Z" fill="#510C76"/>
<path d="M91.013 17.0395L90.8706 19.1139C90.7213 21.2805 92.3968 23.0586 94.6013 23.0586H96.3106C98.5152 23.0586 100.442 21.2871 100.591 19.1139L101.011 13.0947H95.2932C93.0887 13.0947 91.1622 14.8662 91.013 17.0395Z" fill="#510C76"/>
<path d="M109.592 22.9929L111.729 23.0061C114.021 23.039 115.805 21.5639 115.826 19.4236L115.955 17.7641C116.117 15.525 114.917 13.1872 112.685 13.1674L106.024 13.1016L105.576 18.6465C105.549 20.7868 107.36 22.8217 109.592 22.9929Z" fill="#E7630F"/>
<path d="M114.591 70.1117L114.449 72.1862C114.299 74.3528 115.975 76.1309 118.179 76.1309H119.889C122.093 76.1309 124.02 74.3594 124.169 72.1862L124.589 66.167H118.871C116.674 66.167 114.747 67.9451 114.591 70.1117Z" fill="#510C76"/>
<path d="M126.218 70.1117L126.076 72.1862C125.926 74.3528 127.602 76.1309 129.806 76.1309H131.516C133.72 76.1309 135.647 74.3594 135.796 72.1862L136.216 66.167H130.498C128.301 66.167 126.367 67.9451 126.218 70.1117Z" fill="#510C76"/>
<path d="M133.266 22.7438C132.866 22.7438 132.459 22.7438 132.058 22.7438C131.814 22.7438 131.746 22.6647 131.76 22.4342C131.875 20.8011 132.004 19.1613 132.113 17.5281C132.14 17.1198 132.147 16.7115 132.113 16.3032C132.072 15.7698 131.821 15.5459 131.272 15.5393C130.817 15.5327 130.363 15.5656 129.908 15.5854C129.8 15.592 129.739 15.6249 129.759 15.7566C129.895 16.5271 129.8 17.2713 129.739 18.0286C129.657 19.1218 129.576 20.2149 129.494 21.3081C129.467 21.6967 129.427 22.0786 129.399 22.4672C129.386 22.6713 129.277 22.7569 129.06 22.7569C128.253 22.7503 127.446 22.7569 126.645 22.7569C126.381 22.7569 126.32 22.6911 126.34 22.4474C126.469 20.7681 126.598 19.0888 126.72 17.403C126.747 17.0342 126.754 16.6522 126.727 16.2769C126.7 15.8027 126.476 15.5854 125.988 15.5591C125.533 15.5327 125.085 15.5525 124.638 15.5393C124.509 15.5393 124.502 15.6117 124.495 15.7039C124.421 16.751 124.339 17.7981 124.265 18.8452C124.176 20.0371 124.088 21.2291 124 22.4211C123.98 22.6845 123.898 22.7569 123.62 22.7569C122.82 22.7569 122.019 22.7569 121.226 22.7569C120.968 22.7569 120.9 22.6779 120.914 22.4211C121.043 20.6628 121.165 18.8979 121.294 17.1396C121.382 15.9674 121.463 14.7951 121.551 13.6229C121.572 13.3727 121.626 13.3003 121.924 13.2608C122.542 13.1751 123.166 13.0764 123.79 13.0303C124.807 12.9512 125.825 12.9183 126.856 13.0566C127.432 13.1356 128.002 13.241 128.552 13.4781C128.633 13.511 128.741 13.5044 128.823 13.4781C129.908 13.1225 131.041 12.9249 132.221 12.9776C132.703 12.9973 133.198 13.0764 133.666 13.2015C134.575 13.4386 135.063 14.0642 135.226 14.9334C135.362 15.6315 135.294 16.323 135.246 17.0078C135.138 18.4501 135.029 19.8857 134.921 21.3279C134.894 21.7098 134.86 22.0852 134.826 22.4672C134.806 22.6911 134.731 22.7569 134.494 22.7569C134.087 22.7438 133.68 22.7438 133.266 22.7438Z" fill="#510C76"/>
<path d="M151.715 18.8514C150.833 18.8514 149.952 18.858 149.07 18.8514C148.907 18.8514 148.846 18.8975 148.839 19.0556C148.805 19.8656 149.097 20.2014 149.945 20.2541C150.569 20.2871 151.186 20.2739 151.81 20.2739C152.434 20.2739 153.052 20.2739 153.676 20.2739C153.988 20.2739 154.055 20.3332 154.035 20.6229C154.001 21.1695 153.96 21.7096 153.913 22.2496C153.899 22.4274 153.811 22.5393 153.621 22.5591C152.733 22.6447 151.851 22.7764 150.956 22.8093C150.128 22.8423 149.294 22.7896 148.459 22.7369C147.89 22.6974 147.327 22.5393 146.825 22.21C146.221 21.8149 145.97 21.2354 145.841 20.5966C145.658 19.6878 145.705 18.7856 145.773 17.8899C145.834 17.0733 145.922 16.2633 146.153 15.4796C146.397 14.6564 146.804 13.9518 147.591 13.5237C148.052 13.2735 148.561 13.1417 149.09 13.0693C150.27 12.9178 151.458 12.8981 152.658 13.1088C153.187 13.201 153.696 13.3657 154.123 13.741C154.646 14.2086 154.829 14.8079 154.91 15.4335C155.053 16.474 154.971 17.4948 154.876 18.5156C154.863 18.6934 154.747 18.8119 154.557 18.8317C154.456 18.8448 154.354 18.8514 154.252 18.8514C153.404 18.8514 152.556 18.8514 151.715 18.8514ZM148.934 17.0338C149.063 17.0338 149.138 17.0338 149.212 17.0338C149.918 17.0338 150.616 17.0338 151.322 17.0338C151.987 17.0338 152.021 16.9943 151.885 16.3357C151.797 15.9011 151.559 15.6508 151.112 15.585C150.806 15.5455 150.494 15.5323 150.196 15.5521C149.687 15.5916 149.294 15.8221 149.117 16.2962C149.036 16.5201 149.002 16.7572 148.934 17.0338Z" fill="#510C76"/>
<path d="M141.975 18.8508C141.107 18.8508 140.239 18.8574 139.371 18.8442C139.154 18.8376 139.113 18.9232 139.113 19.1011C139.113 19.8979 139.384 20.1811 140.212 20.2469C140.449 20.2667 140.693 20.2601 140.931 20.2601C141.948 20.2601 142.966 20.2601 143.983 20.2601C144.254 20.2601 144.329 20.3259 144.316 20.5828C144.282 21.1425 144.234 21.6957 144.193 22.2489C144.18 22.4201 144.092 22.5255 143.909 22.5453C143.047 22.6309 142.192 22.7428 141.324 22.7955C140.368 22.8614 139.405 22.8416 138.435 22.6835C137.994 22.6111 137.566 22.486 137.18 22.2489C136.542 21.8604 136.264 21.2743 136.128 20.6091C135.918 19.5884 135.979 18.5808 136.088 17.5864C136.155 16.9213 136.257 16.2496 136.406 15.6042C136.61 14.7217 137.037 13.971 137.865 13.51C138.326 13.2598 138.835 13.1215 139.364 13.0556C140.537 12.9042 141.731 12.8844 142.932 13.0951C143.474 13.1873 143.997 13.3586 144.424 13.7537C144.94 14.2344 145.143 14.8403 145.184 15.4725C145.231 16.2298 145.211 16.9871 145.211 17.751C145.211 17.9947 145.177 18.2384 145.157 18.4755C145.136 18.6796 145.021 18.8047 144.797 18.8245C144.702 18.8311 144.607 18.8376 144.512 18.8376C143.671 18.8508 142.823 18.8508 141.975 18.8508ZM142.213 17.0201C142.192 16.7632 142.186 16.5262 142.145 16.2891C142.07 15.8874 141.819 15.6371 141.406 15.5844C141.1 15.5449 140.788 15.5252 140.49 15.5515C139.662 15.6174 139.249 16.164 139.276 17.0201C140.239 17.0201 141.202 17.0201 142.213 17.0201Z" fill="#510C76"/>
<path d="M167.806 15.5325C167.202 15.5325 166.605 15.5325 166.002 15.5325C165.744 15.5325 165.669 15.4601 165.683 15.223C165.724 14.6632 165.778 14.0969 165.812 13.5371C165.825 13.3659 165.914 13.2803 166.076 13.2539C167.46 13.0037 168.878 12.9115 170.316 12.9839C170.94 13.0169 171.564 13.0893 172.174 13.2869C173.328 13.6622 173.782 14.3932 173.748 15.4535C173.714 16.6586 173.599 17.8506 173.511 19.0492C173.45 19.958 173.375 20.8668 173.314 21.7756C173.28 22.2695 173.151 22.421 172.649 22.5066C170.92 22.8095 169.156 22.9017 167.372 22.7897C166.945 22.7634 166.51 22.691 166.09 22.5922C165.283 22.3946 164.808 21.8546 164.659 21.0841C164.489 20.2016 164.543 19.3389 164.862 18.5289C165.208 17.6333 165.934 17.1921 166.884 17.0406C167.365 16.9616 167.86 16.9287 168.355 16.9155C169.041 16.8891 169.732 16.8957 170.424 16.8957C170.56 16.8957 170.628 16.8628 170.614 16.7245C170.607 16.6916 170.614 16.6586 170.614 16.6257C170.655 15.9211 170.323 15.5655 169.583 15.5523C168.993 15.5259 168.396 15.5391 167.806 15.5325ZM170.458 18.6936C169.787 18.6936 169.136 18.6738 168.498 18.7002C168.071 18.7133 167.759 18.9109 167.684 19.3455C167.664 19.4707 167.65 19.6024 167.657 19.7341C167.67 20.1556 167.854 20.3465 168.288 20.3992C168.952 20.4782 169.597 20.419 170.234 20.307C170.282 20.3004 170.343 20.2346 170.35 20.1885C170.39 19.7012 170.424 19.2072 170.458 18.6936Z" fill="#510C76"/>
<path d="M159.767 20.1812C159.896 20.1812 159.97 20.1812 160.045 20.1812C161.212 20.1812 162.378 20.1812 163.545 20.1812C163.633 20.1812 163.721 20.1878 163.81 20.2009C163.938 20.2207 164.006 20.3063 163.999 20.4314C163.959 21.1032 163.911 21.7815 163.857 22.4532C163.837 22.6837 163.735 22.743 163.45 22.743C162.324 22.743 161.198 22.743 160.072 22.743C158.566 22.743 157.054 22.743 155.548 22.743C155.181 22.743 155.107 22.6705 155.134 22.3149C155.168 21.8868 155.202 21.4522 155.256 21.0241C155.27 20.899 155.337 20.7607 155.419 20.6685C156.674 19.2263 157.935 17.7972 159.197 16.3616C159.421 16.1048 159.652 15.8413 159.909 15.545C159.78 15.545 159.706 15.545 159.638 15.545C158.519 15.545 157.4 15.545 156.28 15.545C155.9 15.545 155.846 15.4923 155.873 15.1235C155.914 14.5572 155.955 13.9842 155.989 13.4179C156.009 13.1413 156.111 13.0557 156.436 13.0557C158.58 13.0557 160.723 13.0557 162.867 13.0557C163.233 13.0557 163.606 13.0557 163.972 13.0557C164.23 13.0622 164.305 13.1413 164.284 13.3915C164.25 13.8591 164.23 14.3201 164.183 14.7877C164.169 14.926 164.115 15.0708 164.027 15.1696C162.67 16.7765 161.3 18.3702 159.936 19.9704C159.896 20.0165 159.855 20.0758 159.767 20.1812Z" fill="#510C76"/>
<path d="M143.561 66.7275C141.282 66.7275 139.281 68.6637 139.125 71.0213L138.779 76.1645H165.749C168.028 76.1645 170.029 74.2284 170.185 71.8708L170.531 66.7275H143.561Z" fill="#E7630F"/>
<path d="M161.557 87.8861H32.2503C18.6365 87.8861 10.3815 85.6076 5.47048 80.5039C-0.539372 74.2543 -0.376577 64.4288 0.362784 54.0632L5.26699 0.806641L186.926 0.997614L181.174 70.2964C180.373 79.8321 171.392 87.8861 161.557 87.8861ZM9.58784 5.40329L5.07706 54.4254C4.28344 65.5812 4.66329 72.9306 8.92987 77.3692C12.8098 81.4061 20.2238 83.2895 32.2503 83.2895H161.557C169.032 83.2895 175.849 77.1716 176.453 69.9276L181.798 5.5811L9.58784 5.40329Z" fill="white"/>
<path d="M40.7088 63.0463H25.3518C22.9099 63.0463 21.0717 61.1167 21.248 58.7526L23.4118 29.9412C23.5882 27.577 25.7181 25.6475 28.16 25.6475H43.517C45.9589 25.6475 47.7972 27.577 47.6208 29.9412L45.457 58.7526C45.2739 61.1233 43.144 63.0463 40.7088 63.0463ZM27.9362 28.578C27.1629 28.578 26.4846 29.1904 26.4303 29.9412L24.2665 58.7526C24.2122 59.5033 24.7956 60.1158 25.5689 60.1158H40.9259C41.6991 60.1158 42.3775 59.5033 42.4317 58.7526L44.5955 29.9412C44.6498 29.1904 44.0665 28.578 43.2932 28.578H27.9362Z" fill="white"/>
<path d="M44.6492 53.8662L44.4321 56.7439H23.0449L23.262 53.8662H44.6492Z" fill="white"/>
</svg>
